<svg t="1653226325529" class="icon" viewBox="0 0 1024 1024" version="1.1" xmlns="http://www.w3.org/2000/svg" p-id="9283" width="200" height="200">
	<path d="M871.2192 419.0208a39.7312 39.7312 0 0 0-14.7456-2.4576c2.4576-67.1744 3.8912-142.1312-43.8272-192.9216C759.808 167.5264 675.84 171.008 601.4976 174.08c-0.8192-46.6944-18.8416-91.3408-49.9712-123.6992C520.192 17.8176 477.3888 0 430.6944 0c-46.4896 0-89.4976 17.8176-120.6272 50.3808-31.1296 32.3584-49.152 77.0048-49.9712 123.6992-66.1504-2.4576-140.6976-4.9152-194.56 39.7312C1.4336 267.0592 3.6864 349.7984 5.7344 422.5024c0.4096 12.6976 0.6144 25.3952 0.6144 37.6832 0 12.4928 5.7344 24.1664 15.5648 31.9488 10.24 7.9872 23.552 11.0592 36.2496 7.7824 40.5504-9.8304 74.1376 1.2288 94.8224 31.1296 22.528 32.9728 23.552 81.1008 2.048 112.2304-19.456 28.2624-53.8624 37.888-96.8704 27.648-12.6976-3.072-26.0096-0.2048-36.2496 7.7824-9.8304 7.7824-15.5648 19.456-15.5648 31.9488 0 14.9504-0.6144 30.9248-1.4336 47.104-2.8672 70.4512-6.3488 149.9136 40.1408 204.8 55.0912 65.1264 140.9024 62.2592 216.8832 59.8016 14.336-0.4096 28.4672-1.024 41.984-1.024 11.8784 0 22.528-4.7104 29.9008-13.1072 8.3968-9.6256 12.0832-23.3472 10.0352-37.6832-6.5536-44.8512 6.7584-80.4864 37.2736-100.1472 29.0816-18.8416 69.8368-18.6368 98.9184 0 30.72 19.6608 43.8272 55.296 37.2736 100.1472-2.048 14.1312 1.6384 27.8528 10.0352 37.6832 7.3728 8.6016 18.0224 13.1072 29.9008 13.1072 13.9264 0 28.8768 0.6144 44.032 1.2288 16.7936 0.8192 33.5872 1.4336 50.5856 1.4336 60.2112 0 121.0368-8.192 162.4064-54.6816 48.5376-54.4768 45.2608-135.7824 42.1888-207.4624v-0.8192c101.1712-0.6144 155.2384-78.6432 163.0208-153.1904 8.192-77.824-34.816-169.984-148.2752-188.8256z m-98.304 295.936c0 12.4928 0.4096 24.7808 0.6144 37.0688 1.4336 49.3568 2.6624 96.0512-19.456 140.0832-23.7568 47.5136-52.8384 47.5136-100.5568 47.104h-54.272c-5.7344-85.6064-59.1872-168.7552-168.7552-168.7552s-163.4304 86.4256-168.7552 170.1888c-73.3184 3.072-154.4192 4.9152-173.4656-85.4016-6.144-28.8768-3.8912-63.0784-1.8432-96.4608l0.2048-1.6384c58.9824 1.024 108.3392-24.1664 137.8304-72.4992 35.4304-58.1632 35.4304-139.4688 0.2048-197.632-29.4912-48.3328-77.2096-73.5232-137.4208-72.704-2.6624-68.8128-1.2288-137.216 86.016-156.672 26.2144-5.7344 57.9584-3.6864 88.6784-1.6384 15.5648 1.024 30.1056 2.048 44.2368 2.048a40.96 40.96 0 0 0 32.3584-15.9744c7.9872-10.4448 10.6496-23.3472 7.3728-35.84-10.8544-41.1648-0.4096-75.3664 29.696-96.256 33.3824-23.3472 82.3296-24.1664 114.0736-2.048 28.2624 19.8656 37.6832 54.6816 26.0096 98.304-3.2768 12.4928-0.6144 25.6 7.3728 35.84 7.7824 10.24 19.6608 15.9744 32.3584 15.9744 10.4448 0 22.9376-0.6144 36.4544-1.2288 59.5968-3.072 141.312-7.168 169.5744 35.84 19.6608 29.696 15.9744 86.2208 13.1072 131.6864-1.024 14.9504-1.8432 28.8768-1.8432 40.3456 0 12.4928 5.5296 24.1664 15.36 31.9488 10.24 8.192 23.552 11.0592 35.6352 7.9872l31.1296-5.12c37.888 4.096 65.3312 22.9376 77.2096 52.8384 12.6976 31.9488 5.7344 71.0656-17.2032 97.6896-21.9136 25.1904-53.8624 34.2016-90.3168 25.3952-12.9024-3.072-26.0096-0.2048-36.2496 7.9872-9.8304 7.3728-15.36 19.0464-15.36 31.5392z" p-id="9284" fill="#666666">
	</path>
</svg>
