<svg xmlns="http://www.w3.org/2000/svg" xmlns:xlink="http://www.w3.org/1999/xlink" fill="none" version="1.1" width="45.99784851074219" height="45.99928283691406" viewBox="0 0 45.99784851074219 45.99928283691406">
	<g>
		<path d="M25.9264,0.189391C13.3301,-1.42636,1.80517,7.47464,0.189425,20.0729C-1.42633,32.6692,7.47276,44.1922,20.071,45.8099C32.6693,47.4256,44.1961,38.5246,45.808,25.9264C47.4257,13.3301,38.5266,1.80706,25.9264,0.189391ZM30.6625,14.5356C30.2357,14.5412,29.8279,14.7132,29.5259,15.0148L20.991,23.5497L20.4026,22.9613L19.1702,21.7289C27.5824,13.3416,29.0985,13.2611,30.6625,14.5356ZM21.3418,23.8526L29.8518,15.3426C30.3226,14.8487,31.1117,14.852,31.5785,15.3496C32.0453,15.8473,31.9981,16.635,31.4752,17.0733L22.4688,24.9796L21.3418,23.8526ZM21.9743,25.1827L19.8659,25.6389C19.8141,25.6506,19.761,25.6252,19.7375,25.5776C19.7111,25.532,19.719,25.4744,19.7567,25.4376L20.9929,24.2014L21.9743,25.1827ZM16.6018,24.303L18.8482,22.0566L20.5329,23.7395L16.7398,24.556C16.6747,24.5729,16.6066,24.5416,16.5769,24.4812C16.54,24.4238,16.5506,24.3481,16.6018,24.303ZM9.61367,35.9141C9.53305,35.9071,9.47366,35.8356,9.48142,35.7551C9.48506,35.7217,9.49993,35.6906,9.52359,35.6669L9.52742,35.6669L11.3406,33.8537L13.6828,36.1959L9.61367,35.9141ZM14.2616,33.5068C14.0828,33.5992,13.9902,33.8018,14.0373,33.9975L14.4264,35.6554C14.4523,35.7604,14.4045,35.8697,14.31,35.9221C14.2154,35.9746,14.0974,35.9572,14.022,35.8796L14.0163,35.8796L12.2261,34.0895L11.6626,33.5241L18.8731,26.3212L22.3614,25.568L24.0366,27.2431C21.6312,29.3553,18.3422,31.4617,14.2616,33.5068ZM24.3797,26.9365L24.3758,26.9365L22.7678,25.3284L31.7742,17.4221C31.8575,17.3481,31.9338,17.2667,32.0023,17.1787C31.7186,19.7566,28.1133,23.3983,24.3797,26.9365ZM31.3889,14.5548L31.3832,14.551C30.0668,13.2283,30.0229,11.1044,31.2835,9.72846C32.5441,8.35252,34.6637,8.21078,36.0963,9.40664L33.0104,12.4982C32.9204,12.5874,32.9204,12.7329,33.0104,12.8221L35.4005,15.2122C34.0609,15.8772,32.4462,15.6126,31.3889,14.5548ZM36.3301,14.5548C36.1716,14.7113,35.9975,14.8513,35.8107,14.9726L35.8088,14.9726L33.4953,12.6592L36.4336,9.72097C37.7005,11.101,37.6545,13.2323,36.3301,14.5548ZM36.1384,11.5955C36.044,11.6639,36.0032,11.7847,36.0368,11.8964C36.1763,12.1787,36.1365,12.5167,35.9353,12.7589C35.8429,12.8752,35.8626,13.0445,35.9793,13.1365C36.0254,13.1726,36.0819,13.1927,36.1403,13.194C36.2188,13.1933,36.2931,13.1583,36.3435,13.0981C36.6799,12.694,36.7453,12.1291,36.5103,11.6587C36.4258,11.5374,36.2583,11.509,36.1384,11.5955Z" fill="#FFFFFF" fill-opacity="1" style="mix-blend-mode:passthrough" />
	</g>
</svg>
