<svg xmlns="http://www.w3.org/2000/svg" xmlns:xlink="http://www.w3.org/1999/xlink" fill="none" version="1.1" width="23.94818687438965" height="25.7384090423584" viewBox="0 0 23.94818687438965 25.7384090423584">
	<g>
		<path d="M14.7647,20.526C14.6863,20.5261,14.6083,20.536,14.5324,20.5555L9.07113,21.9637C8.65619,22.06,8.38647,22.4609,8.45366,22.8815C8.50341,23.2741,8.80937,23.6741,9.29412,23.6741C9.37317,23.6736,9.45182,23.663,9.52822,23.6428L14.9877,22.2364C15.4026,22.1401,15.6723,21.7392,15.6051,21.3185C15.5553,20.9241,15.2512,20.526,14.7647,20.526ZM13.4597,23.4713C13.293,23.4745,13.1314,23.5293,12.9971,23.628C12.634,23.8768,12.2856,24.0151,11.9631,24.0335L11.9207,24.0335C11.7003,24.0213,11.4858,23.9582,11.294,23.8492C11.2755,23.84,11.2037,23.7921,11.1557,23.7607C11.023,23.6723,10.9862,23.6483,10.9419,23.6428C10.8167,23.5776,10.6776,23.5434,10.5364,23.5432C10.1343,23.5474,9.77586,23.7976,9.63325,24.1736C9.52819,24.4777,9.62772,24.7855,9.89865,25.0012C10.5106,25.4822,11.2257,25.7384,11.963,25.7384C12.6376,25.7384,13.3067,25.5228,13.8965,25.1154C14.226,24.8959,14.3667,24.4821,14.2393,24.1072C14.1213,23.7275,13.808,23.4732,13.4596,23.4732L13.4596,23.4713L13.4597,23.4713ZM18.1321,8.09941C17.542,6.99089,16.6431,6.07728,15.5443,5.46922C14.4873,4.89285,13.3015,4.59356,12.0976,4.59925C11.0544,4.59925,10.0057,4.82044,9.06194,5.23881C8.07766,5.67146,7.20703,6.32632,6.51838,7.152C5.23184,8.69472,4.68813,10.9286,5.06781,13.1238C5.43091,15.2342,6.58656,17.0055,8.23803,17.9842C8.37017,18.065,8.5218,18.1084,8.67669,18.1096C9.0742,18.0956,9.41354,17.8181,9.50609,17.4313C9.61619,17.0628,9.45422,16.6674,9.11719,16.4821C6.90909,15.1734,6.28056,12.0216,6.96622,9.85038C7.63159,7.7455,9.66828,6.32994,12.0349,6.32994C13.0321,6.32994,14.0034,6.58797,14.842,7.07641C15.9774,7.73625,16.7884,8.83663,17.1275,10.1748C17.4953,11.6059,17.2763,13.1247,16.5193,14.3938C16.2188,14.8859,15.8299,15.3411,15.4539,15.7798C15.2125,16.06,14.9618,16.3512,14.7351,16.6516C14.348,17.1677,14.2301,17.7207,14.1139,18.2533L14.0513,18.539L9.07106,19.8643C8.65441,19.9639,8.38566,20.3687,8.45544,20.7913C8.50703,21.1803,8.80931,21.5765,9.29037,21.5765C9.37135,21.5759,9.4519,21.5648,9.53,21.5433L13.4154,20.5093C13.5591,20.4706,13.7011,20.4356,13.8356,20.4024C14.8991,20.1407,15.7378,19.9324,15.8354,18.3971C15.8705,17.8552,16.3349,17.3465,16.746,16.9023C16.851,16.7862,16.9506,16.6793,17.0409,16.5705C17.5348,15.9936,18.1486,15.2084,18.5375,14.2813C19.3596,12.3239,19.214,10.1287,18.132,8.10122L18.1321,8.09941ZM3.42369,11.8097C3.42369,11.3305,3.03663,10.9397,2.55741,10.9397L0.869062,10.9397C0.389094,10.9397,0,11.3288,0,11.8088C0,12.2888,0.389094,12.6778,0.869062,12.6778L2.55372,12.6778C3.03294,12.6778,3.42,12.2889,3.42,11.8097L3.42369,11.8097L3.42369,11.8097ZM23.0791,10.9397L21.3963,10.9397C20.9163,10.9397,20.5273,11.3288,20.5273,11.8088C20.5273,12.2888,20.9163,12.6778,21.3963,12.6778L23.0791,12.6778C23.5591,12.6778,23.9482,12.2888,23.9482,11.8088C23.9482,11.3288,23.5591,10.9397,23.0791,10.9397ZM4.73234,5.75491C5.09416,6.07107,5.64375,6.03403,5.95988,5.67222C6.24634,5.34438,6.24634,4.85522,5.95988,4.52735L4.76919,3.33297C4.40738,3.01681,3.85778,3.05385,3.54166,3.41566C3.25519,3.7435,3.25519,4.23266,3.54166,4.56053L4.73234,5.75491ZM19.2822,17.8645C18.9204,17.5483,18.3708,17.5853,18.0547,17.9472C17.7682,18.275,17.7682,18.7642,18.0547,19.092L19.2454,20.2846C19.6072,20.6007,20.1568,20.5637,20.4729,20.2019C20.7594,19.874,20.7594,19.3849,20.4729,19.057L19.2822,17.8645ZM12.0073,3.38278C12.4865,3.38278,12.8736,2.99388,12.8736,2.51466L12.8736,0.828158C12.8515,0.34922,12.4453,-0.0211546,11.9664,0.000939131C11.5183,0.0215955,11.1598,0.380127,11.1392,0.828158L11.1392,2.51466C11.1392,2.99388,11.5262,3.38278,12.0054,3.38278L12.0073,3.38278ZM5.95988,17.8645C5.62225,17.5255,5.07375,17.5244,4.73478,17.862L4.73234,17.8645L3.54166,19.057C3.20269,19.396,3.20269,19.9456,3.54166,20.2845C3.88062,20.6235,4.43022,20.6235,4.76919,20.2845L5.95987,19.0938C6.299,18.7542,6.299,18.2041,5.95988,17.8645ZM18.0547,5.75491C18.3923,6.09388,18.9408,6.09497,19.2798,5.75735L19.2822,5.75491L20.4729,4.56238C20.8119,4.22341,20.8119,3.67381,20.4729,3.33485C20.1339,2.99588,19.5843,2.99588,19.2454,3.33485L18.0547,4.52553C17.7156,4.86519,17.7156,5.41528,18.0547,5.75491Z" fill="#FFF9C2" fill-opacity="1" style="mix-blend-mode:passthrough" />
	</g>
</svg>
